<svg width="20" height="20" viewBox="0 0 20 20" fill="none" xmlns="http://www.w3.org/2000/svg">
<circle cx="10.2001" cy="9.79995" r="9.6" fill="#1DBF73"/>
<path d="M7.24965 12.5999V5.99985L7.67965 6.46985H5.66965V5.59985H8.23965V12.5999H7.24965ZM12.6808 12.6799C12.1342 12.6799 11.6442 12.5399 11.2108 12.2599C10.7842 11.9799 10.4442 11.5732 10.1908 11.0399C9.94415 10.5065 9.82082 9.85985 9.82082 9.09985C9.82082 8.33985 9.94415 7.69319 10.1908 7.15985C10.4442 6.62652 10.7842 6.21985 11.2108 5.93985C11.6442 5.65985 12.1342 5.51985 12.6808 5.51985C13.2208 5.51985 13.7075 5.65985 14.1408 5.93985C14.5742 6.21985 14.9142 6.62652 15.1608 7.15985C15.4075 7.69319 15.5308 8.33985 15.5308 9.09985C15.5308 9.85985 15.4075 10.5065 15.1608 11.0399C14.9142 11.5732 14.5742 11.9799 14.1408 12.2599C13.7075 12.5399 13.2208 12.6799 12.6808 12.6799ZM12.6808 11.7899C13.0475 11.7899 13.3675 11.6899 13.6408 11.4899C13.9208 11.2899 14.1375 10.9899 14.2908 10.5899C14.4508 10.1899 14.5308 9.69319 14.5308 9.09985C14.5308 8.50652 14.4508 8.00985 14.2908 7.60985C14.1375 7.20985 13.9208 6.90985 13.6408 6.70985C13.3675 6.50985 13.0475 6.40985 12.6808 6.40985C12.3142 6.40985 11.9908 6.50985 11.7108 6.70985C11.4308 6.90985 11.2108 7.20985 11.0508 7.60985C10.8975 8.00985 10.8208 8.50652 10.8208 9.09985C10.8208 9.69319 10.8975 10.1899 11.0508 10.5899C11.2108 10.9899 11.4308 11.2899 11.7108 11.4899C11.9908 11.6899 12.3142 11.7899 12.6808 11.7899Z" fill="white"/>
</svg>
