<svg width="25" height="23" viewBox="0 0 25 23" fill="none" xmlns="http://www.w3.org/2000/svg">
<path d="M24.2196 8.42486C24.0657 7.96001 23.6435 7.62985 23.144 7.58589L16.3587 6.98425L13.6756 0.851691C13.4778 0.402254 13.0272 0.111328 12.5266 0.111328C12.026 0.111328 11.5755 0.402254 11.3776 0.852742L8.69453 6.98425L1.90817 7.58589C1.40955 7.63091 0.988403 7.96001 0.833613 8.42486C0.678823 8.88971 0.821775 9.39958 1.19897 9.72098L6.32785 14.1134L4.81546 20.619C4.70479 21.0974 4.89492 21.5918 5.30135 21.8787C5.51982 22.0329 5.77541 22.1113 6.03315 22.1113C6.25538 22.1113 6.47582 22.0528 6.67366 21.9372L12.5266 18.5213L18.3774 21.9372C18.8056 22.1887 19.3453 22.1658 19.7508 21.8787C20.1574 21.591 20.3474 21.0963 20.2367 20.619L18.7243 14.1134L23.8532 9.72186C24.2304 9.39958 24.3744 8.89059 24.2196 8.42486Z" fill="#FFCB31"/>
</svg>
