<svg width="15" height="14" viewBox="0 0 15 14" fill="none" xmlns="http://www.w3.org/2000/svg">
<path d="M13.7402 6.70184L11.0977 9.00809L11.8893 12.4417C11.9312 12.6212 11.9192 12.809 11.8549 12.9818C11.7906 13.1545 11.6768 13.3045 11.5278 13.4129C11.3787 13.5213 11.201 13.5834 11.0168 13.5914C10.8327 13.5993 10.6503 13.5528 10.4924 13.4577L7.49767 11.6413L4.50939 13.4577C4.35152 13.5528 4.16911 13.5993 3.98496 13.5914C3.80081 13.5834 3.6231 13.5213 3.47403 13.4129C3.32497 13.3045 3.21118 13.1545 3.14688 12.9818C3.08258 12.809 3.07062 12.6212 3.11251 12.4417L3.90294 9.0116L1.25978 6.70184C1.11998 6.58126 1.01889 6.4221 0.969186 6.24431C0.919484 6.06651 0.92338 5.878 0.980387 5.70241C1.03739 5.52682 1.14497 5.37197 1.28964 5.25728C1.4343 5.14258 1.6096 5.07315 1.79357 5.0577L5.27755 4.75594L6.63751 1.51219C6.70853 1.34198 6.82832 1.19659 6.9818 1.09433C7.13528 0.992067 7.31559 0.9375 7.50001 0.9375C7.68444 0.9375 7.86475 0.992067 8.01822 1.09433C8.1717 1.19659 8.29149 1.34198 8.36251 1.51219L9.72657 4.75594L13.2094 5.0577C13.3934 5.07315 13.5687 5.14258 13.7133 5.25728C13.858 5.37197 13.9656 5.52682 14.0226 5.70241C14.0796 5.878 14.0835 6.06651 14.0338 6.24431C13.9841 6.4221 13.883 6.58126 13.7432 6.70184H13.7402Z" fill="#FFCB31"/>
</svg>
